<?xml version="1.0" encoding="utf-8"?>
<!-- Generator: Adobe Illustrator 19.0.0, SVG Export Plug-In . SVG Version: 6.00 Build 0)  -->
<svg version="1.1" xmlns="http://www.w3.org/2000/svg" xmlns:xlink="http://www.w3.org/1999/xlink" x="0px" y="0px"
	 viewBox="0 0 1280 800" style="enable-background:new 0 0 1280 800;" xml:space="preserve">
<style type="text/css">
	.st0{opacity:0.65;fill:url(#XMLID_109_);}
	.st1{fill:none;stroke:#C1F2FF;stroke-width:7;stroke-miterlimit:10;}
	.st2{fill:#FBFDFF;stroke:#C1F2FF;stroke-width:8;stroke-miterlimit:10;}
</style>
<g id="Layer_1">
	<linearGradient id="XMLID_109_" gradientUnits="userSpaceOnUse" x1="640.01" y1="2.6123" x2="639.9829" y2="1077">
		<stop  offset="0" style="stop-color:#CCE0F4"/>
		<stop  offset="0.1424" style="stop-color:#C3D7F0"/>
		<stop  offset="0.379" style="stop-color:#ACBDE5"/>
		<stop  offset="0.6253" style="stop-color:#8E9CD7"/>
		<stop  offset="0.8652" style="stop-color:#5975BE"/>
		<stop  offset="0.9944" style="stop-color:#376BB4"/>
	</linearGradient>
	<rect id="XMLID_47_" class="st0" width="1280" height="800"/>
	<line id="XMLID_48_" class="st1" x1="385.2" y1="446.7" x2="490.7" y2="427.3"/>
	<line id="XMLID_49_" class="st1" x1="464.5" y1="351.5" x2="488.5" y2="361.8"/>
	<line id="XMLID_50_" class="st1" x1="516.9" y1="243.2" x2="545.9" y2="274.4"/>
	<line id="XMLID_51_" class="st1" x1="376" y1="230.5" x2="470" y2="230.5"/>
	<line id="XMLID_52_" class="st1" x1="316.2" y1="279.1" x2="305.2" y2="363.9"/>
	<line id="XMLID_53_" class="st1" x1="143.1" y1="406.7" x2="252.8" y2="442.5"/>
	<line id="XMLID_54_" class="st1" x1="189.5" y1="565.5" x2="263.1" y2="476"/>
	<line id="XMLID_55_" class="st1" x1="445.2" y1="612.9" x2="323.1" y2="488.7"/>
	<line id="XMLID_56_" class="st1" x1="286.6" y1="741.1" x2="344.5" y2="725.3"/>
	<line id="XMLID_57_" class="st1" x1="180.9" y1="580.4" x2="161.7" y2="645.3"/>
	<line id="XMLID_58_" class="st1" x1="193.4" y1="580.4" x2="233.4" y2="638.4"/>
	<line id="XMLID_59_" class="st1" x1="59" y1="562.2" x2="172.8" y2="571.5"/>
	<line id="XMLID_60_" class="st1" x1="30.7" y1="552.9" x2="-41" y2="520.7"/>
	<line id="XMLID_61_" class="st1" x1="197.9" y1="173.6" x2="296.2" y2="221.1"/>
	<line id="XMLID_62_" class="st1" x1="150.7" y1="243.2" x2="180.9" y2="181.8"/>
	<line id="XMLID_63_" class="st1" x1="99.7" y1="157.7" x2="180.9" y2="168"/>
	<line id="XMLID_64_" class="st1" x1="147.7" y1="94.2" x2="189.5" y2="173.6"/>
	<line id="XMLID_65_" class="st1" x1="55.5" y1="84.6" x2="135.5" y2="91.8"/>
	<line id="XMLID_66_" class="st1" x1="38.5" y1="53" x2="38.5" y2="0"/>
	<line id="XMLID_67_" class="st1" x1="470" y1="65.3" x2="370.3" y2="119.1"/>
	<line id="XMLID_68_" class="st1" x1="512.1" y1="41.5" x2="684.5" y2="22.7"/>
	<line id="XMLID_69_" class="st1" x1="488.5" y1="77.7" x2="497.6" y2="224.6"/>
	<line id="XMLID_70_" class="st1" x1="742.4" y1="291.5" x2="869.4" y2="151.1"/>
	<line id="XMLID_71_" class="st1" x1="865.9" y1="151.1" x2="760.3" y2="121.1"/>
	<line id="XMLID_72_" class="st1" x1="728.4" y1="697.3" x2="684.5" y2="450.8"/>
	<line id="XMLID_73_" class="st1" x1="706.9" y1="699.8" x2="629.3" y2="656.3"/>
	<line id="XMLID_74_" class="st1" x1="271.4" y1="736.3" x2="237.2" y2="650.8"/>
	<line id="XMLID_75_" class="st1" x1="274.8" y1="746" x2="182.4" y2="792.5"/>
	<line id="XMLID_76_" class="st1" x1="50.7" y1="719.1" x2="54.5" y2="562.2"/>
	<line id="XMLID_77_" class="st1" x1="54.5" y1="719.1" x2="-23.1" y2="736.3"/>
	<line id="XMLID_78_" class="st1" x1="508.6" y1="727.7" x2="661.7" y2="788"/>
	<line id="XMLID_79_" class="st1" x1="661.7" y1="788" x2="728.4" y2="697.3"/>
	<line id="XMLID_80_" class="st1" x1="508.6" y1="727.7" x2="459.6" y2="613"/>
	<line id="XMLID_81_" class="st1" x1="507" y1="733.2" x2="484.1" y2="804.6"/>
	<line id="XMLID_82_" class="st1" x1="654.3" y1="400" x2="903.8" y2="375.6"/>
	<line id="XMLID_83_" class="st1" x1="903.8" y1="375.6" x2="907.6" y2="562.2"/>
	<line id="XMLID_84_" class="st1" x1="869.4" y1="147.3" x2="958" y2="56.7"/>
	<line id="XMLID_85_" class="st1" x1="1110.7" y1="92.2" x2="958" y2="56.7"/>
	<line id="XMLID_86_" class="st1" x1="958" y1="56.7" x2="954.1" y2="0"/>
	<line id="XMLID_87_" class="st1" x1="963.8" y1="237.7" x2="869.4" y2="147.3"/>
	<line id="XMLID_88_" class="st1" x1="969.8" y1="246.2" x2="1100" y2="328.7"/>
	<line id="XMLID_89_" class="st1" x1="1027" y1="470.1" x2="905.7" y2="556.7"/>
	<line id="XMLID_90_" class="st1" x1="1031.4" y1="468.9" x2="1100" y2="476"/>
	<line id="XMLID_91_" class="st1" x1="1027" y1="479.1" x2="1065.7" y2="552.9"/>
	<line id="XMLID_92_" class="st1" x1="1069.3" y1="553.6" x2="1031.4" y2="651.5"/>
	<line id="XMLID_93_" class="st1" x1="1072.8" y1="552.9" x2="1171" y2="664.2"/>
	<line id="XMLID_94_" class="st1" x1="1254.8" y1="553.6" x2="1171" y2="664.2"/>
	<line id="XMLID_95_" class="st1" x1="1079.7" y1="744.2" x2="1031.4" y2="656.3"/>
	<line id="XMLID_96_" class="st1" x1="1079.7" y1="748.7" x2="956.1" y2="746"/>
	<line id="XMLID_97_" class="st1" x1="1107.2" y1="328.7" x2="1254.8" y2="316.3"/>
	<line id="XMLID_98_" class="st1" x1="1254.8" y1="316.3" x2="1224.1" y2="169.8"/>
	<line id="XMLID_99_" class="st1" x1="1110.7" y1="88.2" x2="1117.6" y2="3.9"/>
	<line id="XMLID_100_" class="st1" x1="1224.1" y1="169.8" x2="1280" y2="162.9"/>
	<line id="XMLID_101_" class="st1" x1="459.6" y1="613" x2="645.2" y2="414.9"/>
	<line id="XMLID_102_" class="st1" x1="1243.8" y1="747.3" x2="1079.7" y2="748.7"/>
	<line id="XMLID_103_" class="st1" x1="956.1" y1="746" x2="728.4" y2="703.2"/>
	<line id="XMLID_104_" class="st1" x1="956.5" y1="746" x2="956.5" y2="805"/>
	<line id="XMLID_105_" class="st1" x1="110" y1="394.9" x2="-52.8" y2="342.5"/>
	<line id="XMLID_106_" class="st1" x1="973.2" y1="243.2" x2="1107.2" y2="92.2"/>
	<line id="XMLID_107_" class="st1" x1="140" y1="88.2" x2="259" y2="-9.9"/>
</g>
<g id="Layer_3">
</g>
<g id="Layer_2">
	<circle id="XMLID_1_" class="st2" cx="869.4" cy="150.8" r="49.3"/>
	<circle id="XMLID_2_" class="st2" cx="969.8" cy="240.8" r="26.9"/>
	<circle id="XMLID_3_" class="st2" cx="958" cy="56.7" r="15.2"/>
	<circle id="XMLID_4_" class="st2" cx="654.3" cy="399.7" r="165.7"/>
	<circle id="XMLID_5_" class="st2" cx="326.2" cy="230.4" r="48.6"/>
	<circle id="XMLID_6_" class="st2" cx="366.6" cy="123.9" r="17.9"/>
	<circle id="XMLID_7_" class="st2" cx="189.5" cy="171" r="29.1"/>
	<circle id="XMLID_8_" class="st2" cx="147.7" cy="246.2" r="12.2"/>
	<circle id="XMLID_9_" class="st2" cx="99.7" cy="157.7" r="10.3"/>
	<circle id="XMLID_10_" class="st2" cx="140" cy="91.8" r="14.1"/>
	<circle id="XMLID_11_" class="st2" cx="38.6" cy="78" r="43.1"/>
	<circle id="XMLID_12_" class="st2" cx="480.3" cy="49.4" r="65.5"/>
	<circle id="XMLID_13_" class="st2" cx="497.6" cy="224.6" r="27.6"/>
	<circle id="XMLID_14_" class="st2" cx="296.2" cy="450.8" r="89"/>
	<circle id="XMLID_15_" class="st2" cx="113.4" cy="394.9" r="47.6"/>
	<circle id="XMLID_16_" class="st2" cx="54.5" cy="562.2" r="44.5"/>
	<circle id="XMLID_17_" class="st2" cx="182.4" cy="571.5" r="28.3"/>
	<circle id="XMLID_18_" class="st2" cx="237.2" cy="641.8" r="18.6"/>
	<circle id="XMLID_19_" class="st2" cx="161.7" cy="645.3" r="11"/>
	<circle id="XMLID_20_" class="st2" cx="445.2" cy="342.5" r="19.3"/>
	<circle id="XMLID_21_" class="st2" cx="907.6" cy="556.7" r="56.2"/>
	<circle id="XMLID_22_" class="st2" cx="1027" cy="470.1" r="30.3"/>
	<circle id="XMLID_23_" class="st2" cx="1069.3" cy="553.6" r="17.9"/>
	<circle id="XMLID_24_" class="st2" cx="1100" cy="476" r="12.8"/>
	<circle id="XMLID_25_" class="st2" cx="1110.7" cy="94.2" r="41.4"/>
	<circle id="XMLID_26_" class="st2" cx="459.6" cy="613" r="47.5"/>
	<circle id="XMLID_27_" class="st2" cx="348.3" cy="721.8" r="22.1"/>
	<circle id="XMLID_28_" class="st2" cx="55.5" cy="719.1" r="24.8"/>
	<circle id="XMLID_29_" class="st2" cx="180.9" cy="792.5" r="21"/>
	<circle id="XMLID_30_" class="st2" cx="274.8" cy="741.1" r="41.4"/>
	<circle id="XMLID_31_" class="st2" cx="728.4" cy="697.3" r="74.1"/>
	<circle id="XMLID_32_" class="st2" cx="508.6" cy="728.7" r="15.2"/>
	<circle id="XMLID_33_" class="st2" cx="661.7" cy="788" r="16.6"/>
	<circle id="XMLID_34_" class="st2" cx="629.3" cy="651.5" r="17.2"/>
	<circle id="XMLID_35_" class="st2" cx="1257.9" cy="313.2" r="75.5"/>
	<circle id="XMLID_36_" class="st2" cx="1107.2" cy="328.7" r="27.6"/>
	<circle id="XMLID_37_" class="st2" cx="1224.1" cy="169.8" r="22.4"/>
	<circle id="XMLID_38_" class="st2" cx="688.1" cy="22.7" r="18.8"/>
	<circle id="XMLID_39_" class="st2" cx="1077.7" cy="741.9" r="58.1"/>
	<circle id="XMLID_40_" class="st2" cx="1171" cy="664.2" r="30"/>
	<circle id="XMLID_41_" class="st2" cx="1031.4" cy="650.8" r="22.1"/>
	<circle id="XMLID_42_" class="st2" cx="958.4" cy="744.2" r="15.5"/>
	<circle id="XMLID_43_" class="st2" cx="1243.8" cy="746" r="13.8"/>
	<circle id="XMLID_44_" class="st2" cx="1254.8" cy="552.9" r="46.9"/>
	<circle id="XMLID_45_" class="st2" cx="903.8" cy="375.6" r="19.3"/>
	<circle id="XMLID_46_" class="st2" cx="755.5" cy="119.1" r="13.1"/>
</g>
</svg>
